<?xml version="1.0" encoding="UTF-8" standalone="no"?>
<!-- Created with Inkscape (http://www.inkscape.org/) -->

<svg
   xmlns:dc="http://purl.org/dc/elements/1.1/"
   xmlns:cc="http://creativecommons.org/ns#"
   xmlns:rdf="http://www.w3.org/1999/02/22-rdf-syntax-ns#"
   xmlns:svg="http://www.w3.org/2000/svg"
   xmlns="http://www.w3.org/2000/svg"
   xmlns:xlink="http://www.w3.org/1999/xlink"
   xmlns:sodipodi="http://sodipodi.sourceforge.net/DTD/sodipodi-0.dtd"
   xmlns:inkscape="http://www.inkscape.org/namespaces/inkscape"
   id="svg2"
   version="1.1"
   inkscape:version="0.92.4 5da689c313, 2019-01-14"
   xml:space="preserve"
   width="3.472322in"
   height="4in"
   viewBox="0 0 333.3429 383.99998"
   sodipodi:docname="future.svg"><metadata
     id="metadata8"><rdf:RDF><cc:Work
         rdf:about=""><dc:format>image/svg+xml</dc:format><dc:type
           rdf:resource="http://purl.org/dc/dcmitype/StillImage" /><dc:title></dc:title></cc:Work></rdf:RDF></metadata><defs
     id="defs6"><clipPath
       clipPathUnits="userSpaceOnUse"
       id="clipPath16"><path
         d="m 2.422,38.688 v 68.945 l 59.858,34.478 59.859,-34.478 V 38.688 L 62.28,4.211 Z"
         id="path18"
         inkscape:connector-curvature="0" /></clipPath><radialGradient
       fx="0"
       fy="0"
       cx="0"
       cy="0"
       r="1"
       gradientUnits="userSpaceOnUse"
       gradientTransform="matrix(64.567177,0,0,-64.564835,65.073593,36.61673)"
       spreadMethod="pad"
       id="radialGradient24"><stop
         style="stop-opacity:1;stop-color:#cf8484"
         offset="0"
         id="stop26" /><stop
         style="stop-opacity:1;stop-color:#b02626"
         offset="1"
         id="stop28" /></radialGradient><clipPath
       clipPathUnits="userSpaceOnUse"
       id="clipPath44"><path
         d="M 0,146 H 124.56 V 0 H 0 Z"
         id="path46"
         inkscape:connector-curvature="0" /></clipPath><clipPath
       clipPathUnits="userSpaceOnUse"
       id="clipPath196"><path
         d="m 79.288,86.078 c -1.013,0 -1.843,-0.83 -1.843,-1.843 v 0 c 0,-1.015 0.83,-1.844 1.843,-1.844 v 0 h 10.058 c 1.013,0 1.843,0.829 1.843,1.844 v 0 c 0,1.013 -0.83,1.843 -1.843,1.843 v 0 z m -15.365,0 c -1.014,0 -1.844,-0.83 -1.844,-1.843 v 0 c 0,-1.015 0.83,-1.844 1.844,-1.844 v 0 h 8.964 c 1.015,0 1.845,0.829 1.845,1.844 v 0 c 0,1.013 -0.83,1.843 -1.845,1.843 v 0 z m -17.551,0 c -1.014,0 -1.843,-0.83 -1.843,-1.843 v 0 c 0,-1.015 0.829,-1.844 1.843,-1.844 v 0 H 56.43 c 1.013,0 1.843,0.829 1.843,1.844 v 0 c 0,1.013 -0.83,1.843 -1.843,1.843 v 0 z m -11.081,0 c -1.014,0 -1.844,-0.83 -1.844,-1.843 v 0 c 0,-1.015 0.83,-1.844 1.844,-1.844 v 0 h 4.681 c 1.014,0 1.844,0.829 1.844,1.844 v 0 c 0,1.013 -0.83,1.843 -1.844,1.843 v 0 z m 42.971,-6.399 c -0.45,0 -0.817,-0.368 -0.817,-0.817 v 0 c 0,-0.449 0.367,-0.818 0.817,-0.818 v 0 h 11.987 c 0.45,0 0.817,0.369 0.817,0.818 v 0 c 0,0.449 -0.367,0.817 -0.817,0.817 v 0 z m -15.038,0 c -0.449,0 -0.817,-0.368 -0.817,-0.817 v 0 c 0,-0.449 0.368,-0.818 0.817,-0.818 v 0 h 10.581 c 0.449,0 0.817,0.369 0.817,0.818 v 0 c 0,0.449 -0.368,0.817 -0.817,0.817 v 0 z m -12.654,0 c -0.449,0 -0.817,-0.368 -0.817,-0.817 v 0 c 0,-0.449 0.368,-0.818 0.817,-0.818 v 0 h 6.836 c 0.449,0 0.817,0.369 0.817,0.818 v 0 c 0,0.449 -0.368,0.817 -0.817,0.817 v 0 z m -16.382,0 c -0.449,0 -0.817,-0.368 -0.817,-0.817 v 0 c 0,-0.449 0.368,-0.818 0.817,-0.818 v 0 h 6.836 c 0.449,0 0.817,0.369 0.817,0.818 v 0 c 0,0.449 -0.368,0.817 -0.817,0.817 v 0 z m 44.074,-3.12 c -0.45,0 -0.817,-0.367 -0.817,-0.817 v 0 c 0,-0.449 0.367,-0.817 0.817,-0.817 v 0 h 11.987 c 0.45,0 0.817,0.368 0.817,0.817 v 0 c 0,0.45 -0.367,0.817 -0.817,0.817 v 0 z m -15.038,0 c -0.449,0 -0.817,-0.367 -0.817,-0.817 v 0 c 0,-0.449 0.368,-0.817 0.817,-0.817 v 0 h 10.581 c 0.449,0 0.817,0.368 0.817,0.817 v 0 c 0,0.45 -0.368,0.817 -0.817,0.817 v 0 z m -17.878,0 c -0.45,0 -0.817,-0.367 -0.817,-0.817 v 0 c 0,-0.449 0.367,-0.817 0.817,-0.817 v 0 h 12.06 c 0.449,0 0.817,0.368 0.817,0.817 v 0 c 0,0.45 -0.368,0.817 -0.817,0.817 v 0 z m -11.158,0 c -0.449,0 -0.817,-0.367 -0.817,-0.817 v 0 c 0,-0.449 0.368,-0.817 0.817,-0.817 v 0 h 6.836 c 0.449,0 0.817,0.368 0.817,0.817 v 0 c 0,0.45 -0.368,0.817 -0.817,0.817 v 0 z m 44.074,-3.118 c -0.45,0 -0.817,-0.368 -0.817,-0.817 v 0 c 0,-0.45 0.367,-0.817 0.817,-0.817 v 0 h 11.987 c 0.45,0 0.817,0.367 0.817,0.817 v 0 c 0,0.449 -0.367,0.817 -0.817,0.817 v 0 z m -15.038,0 c -0.449,0 -0.817,-0.368 -0.817,-0.817 v 0 c 0,-0.45 0.368,-0.817 0.817,-0.817 v 0 h 10.581 c 0.449,0 0.817,0.367 0.817,0.817 v 0 c 0,0.449 -0.368,0.817 -0.817,0.817 v 0 z m -6.352,0 c -0.45,0 -0.817,-0.368 -0.817,-0.817 v 0 c 0,-0.45 0.367,-0.817 0.817,-0.817 v 0 h 0.534 c 0.449,0 0.817,0.367 0.817,0.817 v 0 c 0,0.449 -0.368,0.817 -0.817,0.817 v 0 z m -22.684,0 c -0.449,0 -0.817,-0.368 -0.817,-0.817 v 0 c 0,-0.45 0.368,-0.817 0.817,-0.817 v 0 h 6.836 c 0.449,0 0.817,0.367 0.817,0.817 v 0 c 0,0.449 -0.368,0.817 -0.817,0.817 v 0 z m 44.074,-3.119 c -0.45,0 -0.817,-0.368 -0.817,-0.818 v 0 c 0,-0.449 0.367,-0.817 0.817,-0.817 v 0 h 11.987 c 0.45,0 0.817,0.368 0.817,0.817 v 0 c 0,0.45 -0.367,0.818 -0.817,0.818 v 0 z m -10.878,0 c -0.449,0 -0.817,-0.368 -0.817,-0.818 v 0 c 0,-0.449 0.368,-0.817 0.817,-0.817 v 0 h 6.421 c 0.449,0 0.817,0.368 0.817,0.817 v 0 c 0,0.45 -0.368,0.818 -0.817,0.818 v 0 z m -12.68,0 c -0.45,0 -0.817,-0.368 -0.817,-0.818 v 0 c 0,-0.449 0.367,-0.817 0.817,-0.817 v 0 h 2.702 c 0.449,0 0.817,0.368 0.817,0.817 v 0 c 0,0.45 -0.368,0.818 -0.817,0.818 v 0 z m -20.516,0 c -0.449,0 -0.817,-0.368 -0.817,-0.818 v 0 c 0,-0.449 0.368,-0.817 0.817,-0.817 v 0 h 6.836 c 0.449,0 0.817,0.368 0.817,0.817 v 0 c 0,0.45 -0.368,0.818 -0.817,0.818 v 0 z m 44.197,-3.119 c -0.45,0 -0.818,-0.368 -0.818,-0.817 v 0 c 0,-0.45 0.368,-0.817 0.818,-0.817 v 0 h 11.987 c 0.45,0 0.817,0.367 0.817,0.817 v 0 c 0,0.449 -0.367,0.817 -0.817,0.817 v 0 z m -15.051,0 c -0.449,0 -0.817,-0.368 -0.817,-0.817 v 0 c 0,-0.45 0.368,-0.817 0.817,-0.817 v 0 h 10.58 c 0.449,0 0.818,0.367 0.818,0.817 v 0 c 0,0.449 -0.369,0.817 -0.818,0.817 v 0 z m -11.57,0 c -0.45,0 -0.817,-0.368 -0.817,-0.817 v 0 c 0,-0.45 0.367,-0.817 0.817,-0.817 v 0 h 5.717 c 0.45,0 0.817,0.367 0.817,0.817 v 0 c 0,0.449 -0.367,0.817 -0.817,0.817 v 0 z m -17.499,0 c -0.45,0 -0.818,-0.368 -0.818,-0.817 v 0 c 0,-0.45 0.368,-0.817 0.818,-0.817 v 0 h 6.834 c 0.45,0 0.818,0.367 0.818,0.817 v 0 c 0,0.449 -0.368,0.817 -0.818,0.817 v 0 z m 44.12,-3.119 c -0.45,0 -0.818,-0.369 -0.818,-0.818 v 0 c 0,-0.449 0.368,-0.817 0.818,-0.817 v 0 h 11.987 c 0.45,0 0.817,0.368 0.817,0.817 v 0 c 0,0.449 -0.367,0.818 -0.817,0.818 v 0 z m -12.39,0 c -0.449,0 -0.817,-0.369 -0.817,-0.818 v 0 c 0,-0.449 0.368,-0.817 0.817,-0.817 v 0 h 7.919 c 0.449,0 0.818,0.368 0.818,0.817 v 0 c 0,0.449 -0.369,0.818 -0.818,0.818 v 0 z m -8.781,0 c -0.449,0 -0.817,-0.369 -0.817,-0.818 v 0 c 0,-0.449 0.368,-0.817 0.817,-0.817 v 0 h 0.267 c 0.45,0 0.817,0.368 0.817,0.817 v 0 c 0,0.449 -0.367,0.818 -0.817,0.818 v 0 z m -22.949,0 c -0.45,0 -0.818,-0.369 -0.818,-0.818 v 0 c 0,-0.449 0.368,-0.817 0.818,-0.817 v 0 h 6.834 c 0.45,0 0.818,0.368 0.818,0.817 v 0 c 0,0.449 -0.368,0.818 -0.818,0.818 v 0 z m 44.12,-3.119 c -0.45,0 -0.818,-0.368 -0.818,-0.818 v 0 c 0,-0.449 0.368,-0.817 0.818,-0.817 v 0 h 11.987 c 0.45,0 0.817,0.368 0.817,0.817 v 0 c 0,0.45 -0.367,0.818 -0.817,0.818 v 0 z m -14.507,0 c -0.45,0 -0.818,-0.368 -0.818,-0.818 v 0 c 0,-0.449 0.368,-0.817 0.818,-0.817 v 0 h 10.036 c 0.449,0 0.818,0.368 0.818,0.817 v 0 c 0,0.45 -0.369,0.818 -0.818,0.818 v 0 z m -17.064,0 c -0.449,0 -0.817,-0.368 -0.817,-0.818 v 0 c 0,-0.449 0.368,-0.817 0.817,-0.817 v 0 h 10.667 c 0.45,0 0.817,0.368 0.817,0.817 v 0 c 0,0.45 -0.367,0.818 -0.817,0.818 v 0 z m -12.549,0 c -0.45,0 -0.818,-0.368 -0.818,-0.818 v 0 c 0,-0.449 0.368,-0.817 0.818,-0.817 v 0 h 6.834 c 0.45,0 0.818,0.368 0.818,0.817 v 0 c 0,0.45 -0.368,0.818 -0.818,0.818 v 0 z m 44.12,-3.119 c -0.45,0 -0.818,-0.368 -0.818,-0.817 v 0 c 0,-0.45 0.368,-0.818 0.818,-0.818 v 0 h 11.987 c 0.45,0 0.817,0.368 0.817,0.818 v 0 c 0,0.449 -0.367,0.817 -0.817,0.817 v 0 z m -15.051,0 c -0.449,0 -0.817,-0.368 -0.817,-0.817 v 0 c 0,-0.45 0.368,-0.818 0.817,-0.818 v 0 h 10.58 c 0.449,0 0.818,0.368 0.818,0.818 v 0 c 0,0.449 -0.369,0.817 -0.818,0.817 v 0 z m -11.769,0 c -0.45,0 -0.818,-0.368 -0.818,-0.817 v 0 c 0,-0.45 0.368,-0.818 0.818,-0.818 v 0 h 5.916 c 0.45,0 0.817,0.368 0.817,0.818 v 0 c 0,0.449 -0.367,0.817 -0.817,0.817 v 0 z m -17.3,0 c -0.45,0 -0.818,-0.368 -0.818,-0.817 v 0 c 0,-0.45 0.368,-0.818 0.818,-0.818 v 0 h 6.834 c 0.45,0 0.818,0.368 0.818,0.818 v 0 c 0,0.449 -0.368,0.817 -0.818,0.817 v 0 z"
         id="path198"
         inkscape:connector-curvature="0" /></clipPath><clipPath
       clipPathUnits="userSpaceOnUse"
       id="clipPath204"><path
         d="M -32768,32767 H 32767 V -32768 H -32768 Z"
         id="path206"
         inkscape:connector-curvature="0" /></clipPath><linearGradient
       x1="0"
       y1="0"
       x2="1"
       y2="0"
       gradientUnits="userSpaceOnUse"
       gradientTransform="matrix(0,29.86697,29.86697,0,62.280125,56.211143)"
       spreadMethod="pad"
       id="linearGradient208"><stop
         style="stop-opacity:0.2;stop-color:#ffffff"
         offset="0"
         id="stop210" /><stop
         style="stop-opacity:1;stop-color:#ffffff"
         offset="1"
         id="stop212" /></linearGradient><mask
       maskUnits="userSpaceOnUse"
       x="0"
       y="0"
       width="1"
       height="1"
       id="mask214"><g
         id="g216"><g
           clip-path="url(#clipPath204)"
           id="g218"><g
             id="g220"><g
               id="g222"><path
                 d="M -32768,32767 H 32767 V -32768 H -32768 Z"
                 style="fill:url(#linearGradient208);stroke:none"
                 id="path224"
                 inkscape:connector-curvature="0" /></g></g></g></g></mask><linearGradient
       x1="0"
       y1="0"
       x2="1"
       y2="0"
       gradientUnits="userSpaceOnUse"
       gradientTransform="matrix(0,29.86697,29.86697,0,62.280125,56.211143)"
       spreadMethod="pad"
       id="linearGradient230"><stop
         style="stop-opacity:1;stop-color:#ffffff"
         offset="0"
         id="stop232" /><stop
         style="stop-opacity:1;stop-color:#ffffff"
         offset="1"
         id="stop234" /></linearGradient><clipPath
       clipPathUnits="userSpaceOnUse"
       id="clipPath242"><path
         d="M 0,146 H 124.56 V 0 H 0 Z"
         id="path244"
         inkscape:connector-curvature="0" /></clipPath><linearGradient
       gradientTransform="matrix(0.31465116,0,0,0.31465116,-24.209867,-279.28908)"
       inkscape:collect="always"
       xlink:href="#linearGradient4732"
       id="linearGradient4726"
       gradientUnits="userSpaceOnUse"
       x1="561.43231"
       y1="847.41254"
       x2="560.03223"
       y2="1033.6233" /><linearGradient
       id="linearGradient4732"
       inkscape:collect="always"><stop
         id="stop4728"
         offset="0"
         style="stop-color:#e6e33b;stop-opacity:1;" /><stop
         id="stop4730"
         offset="1"
         style="stop-color:#ed5b25;stop-opacity:1" /></linearGradient><linearGradient
       inkscape:collect="always"
       xlink:href="#linearGradient4732"
       id="linearGradient5614"
       gradientUnits="userSpaceOnUse"
       gradientTransform="matrix(0.41428498,0,0,0.41428498,-204.01423,-374.10245)"
       x1="904.18951"
       y1="853.92358"
       x2="901.85938"
       y2="646.21924" /><linearGradient
       inkscape:collect="always"
       xlink:href="#linearGradient4732"
       id="linearGradient1462"
       gradientUnits="userSpaceOnUse"
       gradientTransform="matrix(0.14696933,0,0,0.14696933,67.43243,-40.700585)"
       x1="561.43231"
       y1="847.41254"
       x2="560.03223"
       y2="1033.6233" /></defs><sodipodi:namedview
     pagecolor="#ffffff"
     bordercolor="#666666"
     borderopacity="1"
     objecttolerance="10"
     gridtolerance="10"
     guidetolerance="10"
     inkscape:pageopacity="0"
     inkscape:pageshadow="2"
     inkscape:window-width="1920"
     inkscape:window-height="1006"
     id="namedview4"
     showgrid="false"
     inkscape:zoom="1.8287913"
     inkscape:cx="83.887787"
     inkscape:cy="172.72347"
     inkscape:window-x="0"
     inkscape:window-y="0"
     inkscape:window-maximized="1"
     inkscape:current-layer="layer2"
     units="in"
     fit-margin-top="0"
     fit-margin-left="0"
     fit-margin-right="0"
     fit-margin-bottom="0"
     scale-x="1" /><g
     inkscape:groupmode="layer"
     id="layer4"
     inkscape:label="Background"
     style="display:inline"
     transform="translate(0,203.27027)"><g
       style="fill:#000000"
       id="g20"
       transform="matrix(2.6761635,0,0,-2.6761635,0,184.51974)"><g
         style="fill:#000000"
         id="g22"><path
           d="m 2.422,38.688 v 68.945 l 59.858,34.478 59.859,-34.478 V 38.688 L 62.28,4.211 Z"
           style="fill:#000000;stroke:none"
           id="path30"
           inkscape:connector-curvature="0" /></g></g></g><g
     inkscape:groupmode="layer"
     id="layer2"
     inkscape:label="URL"
     style="display:inline"
     transform="translate(0,203.27027)"><g
       clip-path="url(#clipPath242)"
       id="g240"
       transform="matrix(2.6761635,0,0,-2.6761635,0,184.51974)"
       style=""><text
   id="text246"
   style="font-variant:normal;font-weight:300;font-stretch:normal;font-size:3.46666741px;line-height:0%;font-family:'Aller Light';-inkscape-font-specification:Aller-Light;writing-mode:lr-tb;fill:#ffffff;fill-opacity:1;fill-rule:nonzero;stroke:none"
   transform="matrix(0.86677474,0.49869985,0.49869985,-0.86677474,61.7652,8.9448)"><tspan
     y="0"
     x="0"
     style="font-style:normal;font-variant:normal;font-weight:normal;font-stretch:normal;font-size:3.98580532px;line-height:2.25;font-family:'Mukti Narrow';-inkscape-font-specification:'Mukti Narrow';"
     id="tspan248"
     sodipodi:role="line">github.com/HenrikBengtsson/future</tspan></text>



</g></g><g
     id="g10"
     inkscape:groupmode="layer"
     inkscape:label="Border"
     transform="matrix(1.25,0,0,-1.25,0,385.77026)"
     style="display:inline"><path
       inkscape:connector-curvature="0"
       id="path34"
       style="fill:#caeefc;fill-opacity:1;fill-rule:nonzero;stroke:none;stroke-width:2.14093065"
       d="M 0,231.81674 V 78.215671 L 133.33716,1.4162058 266.67433,78.215671 V 231.81674 L 133.33716,308.61621 Z M 10.370668,84.210277 V 225.82214 L 133.33716,296.64841 256.30365,225.82214 V 84.210277 L 133.33716,13.384008 Z" /></g><g
     inkscape:groupmode="layer"
     id="layer3"
     inkscape:label="Future (orig)"
     style="display:none"
     transform="translate(0,203.27027)"><path
       style="fill:url(#linearGradient1462);fill-opacity:1;stroke:#99def9;stroke-width:0.5;stroke-miterlimit:4;stroke-dasharray:none;stroke-opacity:1"
       d="m 88.651632,115.22496 c 0.02693,-0.0606 0.494859,-0.94302 1.039812,-1.96089 4.225583,-7.89257 6.593657,-16.491941 7.463382,-27.10229 0.09276,-1.131666 0.198828,-2.087892 0.235704,-2.12495 0.07721,-0.0776 19.35421,-0.0056 19.43402,0.07225 0.16183,0.158523 -0.99018,7.110035 -1.45241,8.764209 -0.18904,0.67655 -0.15315,0.67047 -4.71921,0.79801 l -3.4734,0.097 -0.17918,1.11075 c -0.0986,0.61091 -0.21447,1.20269 -0.25759,1.31507 -0.066,0.17198 0.5296,0.19675 3.76292,0.15643 2.86293,-0.0357 3.8413,-0.004 3.84121,0.12409 -3e-4,0.46899 -1.73018,4.959131 -2.74094,7.114571 l -0.66016,1.40781 -3.46474,0.2375 c -1.9056,0.13064 -3.51627,0.29077 -3.57926,0.35583 -0.063,0.0651 -0.4586,0.91196 -0.87915,1.88195 -0.66192,1.52674 -3.295905,6.93685 -3.465934,7.11891 -0.05073,0.0543 -9.587851,0.71689 -10.611134,0.73717 -0.188614,0.003 -0.320888,-0.0428 -0.29394,-0.10337 z m 24.151958,-1.64387 c -1.04564,-0.25455 -2.02473,-1.07789 -2.22348,-1.8698 -0.0508,-0.20236 -0.0606,-0.81149 -0.0218,-1.35362 0.056,-0.78254 0.29032,-1.52972 1.13709,-3.62565 2.5184,-6.23354 4.14696,-12.403731 5.21593,-19.761915 0.2055,-1.414584 0.37392,-2.654627 0.37425,-2.755678 4.4e-4,-0.143447 1.12768,-0.183708 5.14452,-0.183708 4.72023,0 5.14393,0.02033 5.14393,0.247009 0,0.474875 -0.75832,5.132543 -1.1203,6.880997 -0.77828,3.759304 -2.00864,7.886274 -3.28246,11.010265 -0.32681,0.80149 -0.5942,1.6778 -0.5942,1.94735 0,0.47466 0.0187,0.49009 0.59418,0.49009 0.49975,0 0.70411,-0.10293 1.28598,-0.64781 1.26294,-1.18265 2.61501,-3.86503 3.82198,-7.582481 1.03111,-3.175816 2.08327,-7.754518 2.5414,-11.059436 l 0.17826,-1.285984 h 4.60445 4.60445 l -0.0682,0.624616 c -0.0375,0.343538 -0.14028,1.319055 -0.22837,2.167801 -0.4966,4.784688 -1.74536,9.584583 -4.07216,15.652234 -2.88295,7.51798 -4.36088,9.52095 -7.52605,10.19976 -0.72425,0.15532 -13.59905,1.06153 -14.61009,1.02836 -0.25211,-0.008 -0.65678,-0.0634 -0.89929,-0.1224 z m 25.20524,-1.53434 c 0,-0.0304 0.43525,-0.97274 0.96721,-2.09432 2.45068,-5.16683 4.13946,-9.93262 5.04519,-14.237661 0.17007,-0.80832 0.3431,-1.61849 0.38453,-1.80037 l 0.0753,-0.33067 h -2.57476 c -1.41612,0 -2.57476,-0.0545 -2.57476,-0.12122 0,-0.06668 0.16825,-0.612312 0.37389,-1.212504 0.60231,-1.75793 1.24615,-4.451285 1.52175,-6.365976 l 0.2562,-1.77982 10.0371,-0.03783 10.0371,-0.03772 -0.0995,0.699119 c -0.27892,1.959814 -0.90055,4.589948 -1.51994,6.430944 l -0.69226,2.057571 -2.11352,0.0735 -2.11352,0.0735 -0.47161,1.692506 c -0.9758,3.50196 -2.29882,7.101771 -3.86115,10.505951 -0.81053,1.76605 -2.44474,4.8636 -2.98817,5.66386 -0.2238,0.32957 -0.35797,0.34918 -4.11515,0.60128 -3.84807,0.2582 -5.57395,0.32627 -5.57395,0.21989 z m 19.0527,-1.4829 c -1.26815,-0.45207 -1.91887,-1.45835 -1.90413,-2.94455 0.0113,-1.13242 0.12563,-1.48043 1.95063,-5.93335 2.39813,-5.851351 3.64552,-10.35967 4.68161,-16.920385 l 0.10445,-0.661356 4.76571,-0.03885 c 2.62115,-0.02135 4.80983,0.0117 4.86374,0.0735 0.13804,0.158136 -0.50235,3.87354 -1.04528,6.064549 -0.59994,2.421069 -1.66971,5.614821 -2.9215,8.722101 -1.43281,3.556531 -1.48238,3.873601 -0.56593,3.619771 1.33135,-0.36873 3.12278,-3.422351 4.58942,-7.822971 0.98749,-2.962982 1.66584,-5.884556 2.37153,-10.213954 l 0.0778,-0.477659 h 3.20407 c 1.76225,0 3.81817,0.04362 4.56871,0.09691 l 1.36464,0.09691 -0.0988,1.336084 c -0.30573,4.136908 -2.0803,9.515009 -5.11957,15.51565 -2.81618,5.56018 -5.21282,8.05892 -8.51738,8.88025 -1.03104,0.25625 -8.34483,0.82006 -10.5529,0.81351 -0.68707,-0.002 -1.5047,-0.0948 -1.81694,-0.2061 z m 17.24872,-0.7964 c 0,-0.0516 0.46764,-0.88671 1.0392,-1.85581 0.57155,-0.96912 1.74801,-3.18507 2.61435,-4.92435 2.90536,-5.832851 4.67422,-10.926823 6.41665,-18.478924 l 0.0762,-0.330679 h 6.85836 c 7.69009,0 7.94229,0.02749 9.23769,1.006554 1.84885,1.39735 2.44076,3.13107 1.91433,5.607066 -0.26559,1.249177 -1.42503,4.446912 -2.18486,6.025742 -0.4786,0.99452 -0.84281,1.4904 -1.78625,2.43203 -0.69928,0.69795 -1.52774,1.359121 -2.02102,1.612941 l -0.83595,0.43012 0.77295,0.81208 c 0.42514,0.44663 0.89122,0.99337 1.03575,1.21495 0.14454,0.22162 0.31944,0.3679 0.38867,0.32512 0.22259,-0.13757 1.70851,-3.023 2.53906,-4.930451 1.57642,-3.62044 3.45048,-9.851809 4.0733,-13.544106 l 0.16733,-0.992046 h 9.6849 c 8.72767,0 9.68488,0.02295 9.68488,0.23215 0,0.33412 -1.49549,4.736327 -2.16788,6.38147 l -0.57064,1.396203 -1.31292,0.09463 c -0.72212,0.05203 -2.64392,0.101679 -4.2707,0.110195 l -2.95774,0.01556 -0.0815,0.404169 c -0.0449,0.222288 -0.12008,0.503367 -0.16716,0.624616 -0.0747,0.192229 0.28166,0.214999 2.78213,0.177689 1.57724,-0.0235 2.86771,0.0114 2.86771,0.0769 0,0.51993 -2.19115,5.2999 -2.75912,6.01898 -0.23891,0.302501 -0.41476,0.327331 -3.00818,0.425021 l -2.75444,0.10372 -0.28679,0.45295 c -0.15775,0.2491 -0.26678,0.47294 -0.24232,0.49741 0.0245,0.0245 1.68846,-0.0201 3.69777,-0.099 2.00932,-0.0788 3.68358,-0.11315 3.72056,-0.0761 0.13453,0.13453 -3.89299,5.76142 -4.46158,6.2333 -0.15454,0.12825 -3.89391,0.42176 -12.38518,0.97212 -6.69011,0.43362 -12.27506,0.79005 -12.411,0.79208 -0.19581,0.003 -0.0812,-0.31704 0.55113,-1.53924 0.67874,-1.31181 0.79833,-1.66238 0.79833,-2.34024 0,-0.64683 -0.073,-0.8841 -0.38709,-1.25733 -0.30623,-0.36394 -0.48263,-0.45071 -0.84445,-0.41544 -0.40542,0.0395 -0.53803,0.18646 -1.16775,1.29382 -0.3907,0.68709 -1.17542,1.99328 -1.74382,2.90265 -0.95874,1.53388 -1.06668,1.6534 -1.49316,1.6534 -0.48827,0 -6.94041,0.39961 -7.99514,0.49519 -0.34354,0.0311 -0.62463,0.0145 -0.62463,-0.0371 z m 17.25076,-14.687771 c 0.44618,-0.41551 1.11655,-1.685911 1.11897,-2.120571 0.001,-0.209371 -0.12955,-0.257199 -0.70312,-0.257199 h -0.70455 l -0.41763,1.28598 c -0.2297,0.70729 -0.45262,1.37855 -0.49537,1.4917 -0.12671,0.3353 0.71183,0.0562 1.2017,-0.39991 z m 3.30058,-13.881264 c -8.90572,-6.834987 -16.1017,-11.540312 -22.742,-14.870537 -1.47593,-0.74021 -1.64922,-0.86713 -1.57581,-1.154165 0.26217,-1.025082 3.18707,-10.888267 3.24651,-10.947703 0.0998,-0.09983 1.32543,0.868871 3.30498,2.612235 0.9255,0.815076 1.81835,1.509392 1.98408,1.542897 0.16574,0.03354 2.41771,0.204553 5.00437,0.380091 l 4.70303,0.319147 1.07696,1.048305 c 2.3075,2.24604 5.50731,5.96428 8.08932,9.399877 1.38206,1.838967 4.86928,6.887806 4.86928,7.049797 0,0.03249 -1.9607,0.02672 -4.35713,-0.01279 -3.69661,-0.061 -4.33846,-0.04086 -4.23389,0.132644 0.0678,0.112479 0.69592,1.130417 1.39586,2.262083 2.83717,4.587233 3.21996,5.217405 3.16924,5.217405 -0.0291,0 -1.79977,-1.340662 -3.9348,-2.979273 z m 23.89549,-4.331894 -1.92198,-0.04549 -0.33992,-0.840986 c -0.7456,-1.844733 -2.77446,-5.615625 -4.11752,-7.652948 -1.49894,-2.273734 -2.98244,-4.200382 -4.98032,-6.467969 -0.6665,-0.756483 -1.18972,-1.397533 -1.16271,-1.424534 0.0271,-0.02704 1.29177,0.04434 2.81059,0.158524 2.55764,0.192324 2.78289,0.23237 3.05177,0.54271 1.97561,2.280263 3.80526,4.862129 5.25168,7.410757 1.34383,2.36785 4.04622,8.179164 3.88056,8.344845 -0.0466,0.04658 -0.18946,0.07028 -0.31746,0.05264 -0.12798,-0.01767 -1.0976,-0.05256 -2.15469,-0.07756 z m 3.97772,-0.716944 c -0.20107,-0.454651 -0.36558,-0.854908 -0.36558,-0.889458 0,-0.03457 -0.46173,-0.984065 -1.02609,-2.109996 -1.80788,-3.606864 -3.7676,-6.545249 -6.68592,-10.024719 -0.9317,-1.110886 -1.69402,-2.062687 -1.69402,-2.115141 0,-0.103425 3.29195,0.05017 4.08907,0.190781 0.3811,0.06724 0.73224,0.364469 1.59928,1.353764 3.21847,3.672382 5.73568,7.829541 7.59458,12.542466 0.37355,0.947013 0.67914,1.757182 0.67914,1.800377 0,0.0432 -0.8606,0.07854 -1.91243,0.07854 h -1.91247 z m -12.35168,0.575458 c -0.42019,-0.05347 -0.50281,-0.177306 -1.28658,-1.928256 -2.16194,-4.829878 -4.71483,-8.660754 -8.96314,-13.450145 -0.63423,-0.715023 -1.11659,-1.336599 -1.07192,-1.381292 0.0447,-0.04466 1.41004,0.0065 3.03411,0.113559 l 2.95288,0.194794 0.88924,0.96603 c 3.54773,3.854066 6.32219,7.892149 10.02955,14.59745 l 0.54848,0.992043 -2.84179,-0.02349 c -1.56301,-0.01295 -3.04386,-0.04923 -3.29083,-0.08067 z m -7.22818,-0.226497 c -0.0793,-0.101042 -0.69695,-1.142687 -1.37251,-2.314766 -2.39742,-4.159645 -5.612,-8.74738 -8.95926,-12.786333 -1.51054,-1.822668 -1.61516,-1.98767 -1.28611,-2.028115 0.197,-0.02423 1.67592,0.05322 3.2865,0.172097 l 2.9283,0.216119 1.08292,1.150641 c 3.38641,3.598146 6.53705,8.172656 10.28219,14.928996 l 0.46844,0.845072 h -3.1431 c -2.33956,0 -3.17997,-0.04695 -3.28737,-0.183711 z"
       id="path4669"
       inkscape:connector-curvature="0"
       sodipodi:nodetypes="cssccsscscscscscscccsccsscsssssssssccccssssssssccsssscccsscccssssscssscscsscsccssccssccscsccsccccccccccccsscccscccsscsccssccsccsccccscsccscccccsccsssccsscccsccscsccssccccscscsscccsscccccccccccccccccsccccsc" /></g><g
     inkscape:groupmode="layer"
     id="layer1"
     inkscape:label="Future"
     style="display:inline"
     transform="translate(0,203.27027)">
<path
   sodipodi:nodetypes="sssccsscccsccscsscssccccscscsccccssccccccsccccccccccsccccsccccsc"
   inkscape:connector-curvature="0"
   id="path5612"
   d="m 155.18987,-30.487063 c -25.10391,-19.26683 -45.38833,-32.530467 -64.106339,-41.917869 -4.160438,-2.086542 -4.648922,-2.444312 -4.441988,-3.253436 0.739018,-2.889551 8.983893,-30.692402 9.151451,-30.859932 0.281406,-0.28132 3.73618,2.44922 9.316226,7.363495 2.60887,2.29759 5.12567,4.254748 5.59285,4.349208 0.46718,0.09444 6.81515,0.576596 14.10657,1.071418 l 13.25715,0.899636 3.03579,2.955004 c 6.50451,6.331256 15.5243,16.812433 22.80261,26.496855 3.89582,5.183786 13.72578,19.415725 13.72578,19.872351 0,0.09162 -5.52692,0.07528 -12.28211,-0.03608 -10.4202,-0.17196 -12.22948,-0.11528 -11.93471,0.373892 0.19112,0.317066 1.9617,3.186488 3.93472,6.3765 7.99757,12.930729 9.0766,14.707085 8.93363,14.707085 -0.082,0 -5.07329,-3.779123 -11.09163,-8.398125 z m 67.35788,-12.21099 -5.4178,-0.12826 -0.95816,-2.3706 c -2.10174,-5.20005 -7.8208,-15.829637 -11.60668,-21.572543 -4.2253,-6.40934 -8.40707,-11.840255 -14.0388,-18.232259 -1.87876,-2.132406 -3.35364,-3.939432 -3.27751,-4.015568 0.0764,-0.0761 3.64131,0.12488 7.92265,0.446872 7.2096,0.542122 7.84456,0.655018 8.60248,1.52982 5.56896,6.427718 10.72648,13.705633 14.80372,20.889845 3.78806,6.674622 11.40568,23.055853 10.93872,23.522879 -0.1314,0.13136 -0.53404,0.19816 -0.89486,0.14828 -0.36076,-0.04988 -3.09398,-0.14828 -6.07376,-0.218744 z m 11.2126,-2.020948 c -0.56678,-1.281592 -1.03052,-2.409866 -1.03052,-2.507256 0,-0.09754 -1.30154,-2.773948 -2.8924,-5.947781 -5.09614,-10.167208 -10.6203,-18.450098 -18.84662,-28.258215 -2.62632,-3.131408 -4.77518,-5.814392 -4.77518,-5.962268 0,-0.291526 9.27952,0.14152 11.52648,0.53778 1.07426,0.18944 2.06408,1.027388 4.50814,3.816078 9.07238,10.351901 16.16804,22.070325 21.408,35.355356 1.05298,2.66951 1.9144,4.95326 1.9144,5.075006 0,0.12178 -2.42592,0.221282 -5.39086,0.221282 h -5.39098 z m -34.81756,1.622138 c -1.18446,-0.150808 -1.41735,-0.49981 -3.62668,-5.435482 -6.09419,-13.614723 -13.29042,-24.413385 -25.26578,-37.914 -1.7878,-2.015536 -3.1475,-3.76765 -3.02158,-3.893654 0.126,-0.126 3.97469,0.017 8.55271,0.32011 l 8.32373,0.549112 2.50664,2.723096 c 10.00053,10.864033 17.82132,22.246787 28.27184,41.14807 l 1.54608,2.796416 -8.0106,-0.06624 c -4.40588,-0.03666 -8.58019,-0.13868 -9.27636,-0.22748 z m -20.37518,-0.63847 c -0.22354,-0.284816 -1.9646,-3.221076 -3.8689,-6.524996 -6.75798,-11.725415 -15.81941,-24.657583 -25.25484,-36.04279 -4.25799,-5.137838 -4.5529,-5.60295 -3.62536,-5.716972 0.55532,-0.06822 4.72417,0.14998 9.26416,0.485126 l 8.25445,0.60921 3.05259,3.243484 c 9.54579,10.142656 18.42699,23.037529 28.98399,42.08266 l 1.32046,2.38213 h -8.85994 c -6.59487,0 -8.96387,-0.13248 -9.26661,-0.517852 z"
   style="display:inline;fill:url(#linearGradient5614);fill-opacity:1;stroke:#99def9;stroke-width:1;stroke-miterlimit:4;stroke-dasharray:none;stroke-opacity:1" /><path
   sodipodi:nodetypes="sssccsscscscscscscccsscsscsssssssssccccssssssssccsssscccsscccssssscssccscsscsccssccssccscsccsccccccccccccsscccscccsscsccssccsccsccccscsccsccsccsccs"
   inkscape:connector-curvature="0"
   id="path5626"
   d="m 21.218973,54.536696 c 0.05766,-0.1298 1.05946,-2.01894 2.226166,-4.19812 9.04668,-16.89744 14.116562,-35.308105 15.978584,-58.0241259 0.1986,-2.4228201 0.425677,-4.4700321 0.504627,-4.5493721 0.1653,-0.16614 41.436019,-0.012 41.606887,0.15468 0.346464,0.339388 -2.119914,15.2220925 -3.109516,18.7635647 -0.404722,1.448446 -0.327882,1.43543 -10.103504,1.708484 l -7.436291,0.2076701 -0.38362,2.3780402 c -0.210988,1.307916 -0.459158,2.574874 -0.551482,2.815472 -0.14128,0.368198 1.13384,0.421228 8.056147,0.334906 6.129348,-0.07642 8.223952,-0.0086 8.223762,0.265668 -6.34e-4,1.004076 -3.704192,10.617152 -5.868148,15.231813 l -1.413368,3.01402 -7.417763,0.50846 c -4.079766,0.2797 -7.52809,0.62252 -7.662942,0.76182 -0.13484,0.1394 -0.981846,1.95244 -1.882208,4.02912 -1.417134,3.26864 -7.056302,14.85132 -7.420322,15.24108 -0.10862,0.1162 -20.526925,1.53482 -22.717703,1.57824 -0.40381,0.006 -0.687,-0.0916 -0.629306,-0.2213 z m 51.707668,-3.5194 c -2.238638,-0.54498 -4.3348,-2.3077 -4.760322,-4.00312 -0.10874,-0.43324 -0.12976,-1.73734 -0.04676,-2.898 0.11988,-1.67536 0.621556,-3.27502 2.434446,-7.76228 5.39172,-13.345561 8.878334,-26.5555172 11.166932,-42.3088798 0.43997,-3.0285261 0.800538,-5.6833722 0.80124,-5.8997142 9.42e-4,-0.30711 2.41429,-0.393306 11.014073,-0.393306 10.10568,0 11.01279,0.04352 11.01279,0.528828 0,1.016676 -1.6235,10.9884204 -2.39849,14.7317385 -1.66624,8.0484085 -4.300348,16.8839725 -7.027508,23.5722125 -0.699676,1.71594 -1.272136,3.592061 -1.272136,4.169141 0,1.01622 0.04006,1.04924 1.272084,1.04924 1.069928,0 1.507448,-0.22036 2.75319,-1.3869 2.70387,-2.531981 5.59856,-8.274761 8.1826,-16.233573 2.20754,-6.7992003 4.46015,-16.6018847 5.44096,-23.6774849 l 0.38164,-2.7532021 h 9.85781 9.85781 l -0.14604,1.33726 c -0.0804,0.73549 -0.30033,2.8240041 -0.48893,4.6411102 -1.06319,10.2436864 -3.7367,20.5199288 -8.7182,33.5103488 -6.17221,16.095481 -9.33634,20.383701 -16.11276,21.836981 -1.55056,0.33252 -29.114621,2.27266 -31.279181,2.20164 -0.539746,-0.018 -1.40613,-0.1358 -1.925312,-0.26204 z m 53.962679,-3.28492 c 0,-0.065 0.93182,-2.08258 2.07073,-4.4838 5.24672,-11.06182 8.86229,-21.265041 10.8014,-30.481839 0.36409,-1.730558 0.73456,-3.4650762 0.82325,-3.8544682 l 0.16126,-0.7079421 h -5.51239 c -3.03182,0 -5.51239,-0.11668 -5.51239,-0.259522 0,-0.14276 0.36021,-1.310918 0.80048,-2.5958881 1.28951,-3.7636061 2.66791,-9.5298923 3.25796,-13.6291125 l 0.5485,-3.8104721 21.48874,-0.081 21.48874,-0.08076 -0.21302,1.496764 c -0.59715,4.1958262 -1.92801,9.82676039 -3.25409,13.7682065 l -1.48208,4.4051162 -4.5249,0.15736 -4.5249,0.15736 -1.00968,3.6235383 c -2.08913,7.497454 -4.92161,15.204398 -8.26646,22.492519 -1.73528,3.781 -5.23401,10.41264 -6.39747,12.12594 -0.47914,0.70558 -0.76638,0.74756 -8.81024,1.2873 -8.23846,0.55278 -11.93345,0.69852 -11.93345,0.47076 z m 40.79051,-3.17478 c -2.71502,-0.96786 -4.10817,-3.12224 -4.07662,-6.30408 0.0241,-2.42444 0.26897,-3.1695 4.17617,-12.702901 5.13423,-12.52733 7.80481,-22.1793284 10.023,-36.225365 l 0.22362,-1.415918 10.20306,-0.08318 c 5.6117,-0.0457 10.29751,0.02504 10.41293,0.15736 0.29554,0.338558 -1.0755,8.2929803 -2.23787,12.98377846 -1.28443,5.18334024 -3.57473,12.02094254 -6.25473,18.67342454 -3.06755,7.61428 -3.17367,8.2931 -1.21162,7.74966 2.85033,-0.78942 6.68566,-7.327 9.82563,-16.74843 2.11415,-6.3435404 3.56645,-12.5984266 5.07729,-21.867367 l 0.1666,-1.022636 h 6.8597 c 3.77284,0 8.17444,0.09338 9.78128,0.207478 l 2.9216,0.207478 -0.21152,2.8604621 c -0.65454,8.85683432 -4.45378,20.3709749 -10.96064,33.2179349 -6.02926,11.903961 -11.1603,17.253581 -18.23513,19.012001 -2.20738,0.54862 -17.8657,1.75568 -22.59303,1.74166 -1.47096,-0.004 -3.22145,-0.20296 -3.88994,-0.44124 z m 36.92832,-1.70504 c 0,-0.1104 1.00118,-1.8984 2.22486,-3.97316 1.22364,-2.07482 3.74236,-6.81902 5.59714,-10.542701 6.22016,-12.487724 10.00718,-23.3935664 13.7376,-39.562091 l 0.1632,-0.70796 h 14.68326 c 16.46396,0 17.0039,0.05886 19.77726,2.1549621 3.95826,2.9916301 5.2255,6.7034042 4.09844,12.0043404 -0.5686,2.6744001 -3.05088,9.5205305 -4.67762,12.9006945 -1.02466,2.129198 -1.8044,3.190844 -3.82424,5.206814 -1.49712,1.49426 -3.27078,2.90978 -4.32686,3.45318 l -1.78972,0.92086 1.65484,1.73862 c 0.9102,0.9562 1.90804,2.126721 2.21746,2.601121 0.30946,0.47446 0.6839,0.78764 0.83212,0.69606 0.47656,-0.29454 3.6578,-6.472041 5.43596,-10.555759 3.375,-7.75111 7.38724,-21.0920386 8.72064,-28.9969909 l 0.35824,-2.1239021 h 20.7347 c 18.68534,0 20.73466,0.04914 20.73466,0.497016 0,0.715328 -3.20174,10.1401484 -4.64128,13.6622865 l -1.2217,2.9891721 -2.81088,0.202598 c -1.546,0.1114 -5.66044,0.217686 -9.14326,0.23592 l -6.33232,0.03332 -0.1744,0.8652981 c -0.0962,0.475902 -0.25708,1.077674 -0.35788,1.33726 -0.16,0.411548 0.60302,0.460298 5.95634,0.38042 3.37676,-0.05032 6.13958,0.0244 6.13958,0.16464 0,1.1131341 -4.6911,11.3467203 -5.9071,12.8862203 -0.51148,0.64764 -0.88796,0.7008 -6.4403,0.90994 l -5.89706,0.22206 -0.614,0.96974 c -0.33774,0.5333 -0.57116,1.01252 -0.51878,1.06492 0.0524,0.0524 3.61486,-0.043 7.91666,-0.21196 4.30182,-0.1688 7.88628,-0.24224 7.96546,-0.163 0.28802,0.28802 -8.33462,12.334801 -9.55194,13.345061 -0.33086,0.27458 -8.33658,0.90296 -26.5158,2.08124 -14.32306,0.92836 -26.28006,1.69144 -26.5711,1.6958 -0.4192,0.006 -0.1738,-0.67876 1.17994,-3.29542 1.45314,-2.80848 1.70916,-3.55904 1.70916,-5.01028 0,-1.38482 -0.1562,-1.8928 -0.82872,-2.69186 -0.65562,-0.77918 -1.03328,-0.96494 -1.80792,-0.88942 -0.86798,0.0846 -1.15188,0.39918 -2.50006,2.76996 -0.83646,1.47102 -2.5165,4.26748 -3.7334,6.21438 -2.0526,3.28394 -2.2837,3.53982 -3.19676,3.53982 -1.04534,0 -14.85894,0.85554 -17.11704,1.06016 -0.7355,0.0666 -1.33728,0.031 -1.33728,-0.0794 z m 36.93268,-31.445503 c 0.95524,-0.889578 2.39046,-3.6094183 2.39564,-4.5399963 0.002,-0.448248 -0.27736,-0.550644 -1.50534,-0.550644 h -1.50838 l -0.89412,2.7531941 c -0.49178,1.5142582 -0.96904,2.9513802 -1.06056,3.1936262 -0.27128,0.717854 1.52398,0.12032 2.57276,-0.85618 z"
   style="display:inline;fill:url(#linearGradient4726);fill-opacity:1;stroke:#99def9;stroke-width:1;stroke-miterlimit:4;stroke-dasharray:none;stroke-opacity:1" /></g></svg>